<svg width="48" height="48" viewBox="0 0 48 48" fill="none" xmlns="http://www.w3.org/2000/svg">
<path d="M4.45157 28.7534C1.917 28.5893 0.000976562 26.3716 0.000976562 23.8314V7.61879C0.000976562 3.41148 3.41247 0 7.61978 0H43.0679C45.6081 0 47.8259 1.91602 47.99 4.45058C48.1691 7.22843 45.9702 9.53669 43.232 9.53669H11.2632C10.3109 9.53669 9.53956 10.308 9.53956 11.2604V23.9954C9.53956 26.7337 7.23129 28.9326 4.45344 28.7534H4.45157Z" fill="url(#paint0_linear_43_3718)"/>
<path d="M40.3804 47.9892H4.93227C2.39204 47.9892 0.174291 46.0732 0.0102232 43.5386C-0.168932 40.7608 2.02996 38.4525 4.7682 38.4525H36.737C37.6893 38.4525 38.4606 37.6812 38.4606 36.7289V24.1579C38.4606 21.6176 40.3766 19.4018 42.9112 19.2358C45.689 19.0567 47.9973 21.2555 47.9973 23.9938V40.3704C47.9973 44.5777 44.5858 47.9892 40.3785 47.9892H40.3804Z" fill="url(#paint1_linear_43_3718)"/>
<path d="M28.1901 28.7628H19.8113C17.1787 28.7628 15.0439 26.6281 15.0439 23.9954C15.0439 21.3628 17.1787 19.228 19.8113 19.228H28.1901C30.8228 19.228 32.9575 21.3628 32.9575 23.9954C32.9575 26.6281 30.8228 28.7628 28.1901 28.7628Z" fill="url(#paint2_linear_43_3718)"/>
<path style="mix-blend-mode:multiply" opacity="0.5" d="M47.988 4.45058C47.8239 1.91602 45.6061 0 43.0659 0C43.0659 0 22.5216 0.875026 11.2612 9.53669H43.23C45.9682 9.53669 48.1671 7.22843 47.988 4.45058Z" fill="url(#paint3_linear_43_3718)"/>
<path style="mix-blend-mode:multiply" d="M4.77015 38.4521C2.03191 38.4521 -0.166978 40.7604 0.0121764 43.5383C0.176244 46.0728 2.394 47.9888 4.93423 47.9888C4.93423 47.9888 28.8203 46.7216 36.7389 38.4521H4.77015Z" fill="url(#paint4_linear_43_3718)"/>
<path style="mix-blend-mode:multiply" d="M42.913 19.2373C40.3784 19.4013 38.4624 21.6191 38.4624 24.1593C38.4624 24.1593 46.9015 27.0692 47.9991 40.3719V23.9953C47.9991 21.257 45.6908 19.0581 42.913 19.2373Z" fill="url(#paint5_linear_43_3718)"/>
<path style="mix-blend-mode:multiply" opacity="0.5" d="M4.45157 28.7533C7.22941 28.9324 9.53767 26.7335 9.53767 23.9953C9.53767 23.9953 1.31729 22.926 0.000976562 7.61865V23.8312C0.000976562 26.3714 1.917 28.5892 4.45157 28.7533Z" fill="url(#paint6_linear_43_3718)"/>
<path d="M28.1901 19.226H19.8113C17.1787 19.226 15.0439 21.3608 15.0439 23.9934C15.0439 26.626 17.1787 28.7608 19.8113 28.7608C28.1581 26.9372 28.1901 19.2241 28.1901 19.2241V19.226Z" fill="url(#paint7_linear_43_3718)"/>
<defs>
<linearGradient id="paint0_linear_43_3718" x1="13.9185" y1="-4.9145" x2="26.9459" y2="19.9767" gradientUnits="userSpaceOnUse">
<stop stop-color="#00B3FF"/>
<stop offset="1" stop-color="#0043C4"/>
</linearGradient>
<linearGradient id="paint1_linear_43_3718" x1="32.0092" y1="52.8792" x2="21.0769" y2="26.5585" gradientUnits="userSpaceOnUse">
<stop stop-color="#00B3FF"/>
<stop offset="1" stop-color="#0043C4"/>
</linearGradient>
<linearGradient id="paint2_linear_43_3718" x1="15.0421" y1="23.9954" x2="32.9575" y2="23.9954" gradientUnits="userSpaceOnUse">
<stop stop-color="#00B3FF"/>
<stop offset="1" stop-color="#0043C4"/>
</linearGradient>
<linearGradient id="paint3_linear_43_3718" x1="31.3077" y1="11.2226" x2="27.6171" y2="1.33706" gradientUnits="userSpaceOnUse">
<stop stop-color="#00B3FF" stop-opacity="0"/>
<stop offset="1" stop-color="#0043C4"/>
</linearGradient>
<linearGradient id="paint4_linear_43_3718" x1="20.0417" y1="47.0742" x2="18.1106" y2="40.2475" gradientUnits="userSpaceOnUse">
<stop stop-color="#9344E4"/>
<stop offset="1" stop-color="#BC6BE3" stop-opacity="0"/>
</linearGradient>
<linearGradient id="paint5_linear_43_3718" x1="42.8262" y1="31.6423" x2="48.6723" y2="25.7038" gradientUnits="userSpaceOnUse">
<stop stop-color="#9344E4"/>
<stop offset="1" stop-color="#BC6BE3" stop-opacity="0"/>
</linearGradient>
<linearGradient id="paint6_linear_43_3718" x1="-2.08288" y1="22.9279" x2="3.39172" y2="18.0983" gradientUnits="userSpaceOnUse">
<stop stop-color="#00B3FF" stop-opacity="0"/>
<stop offset="1" stop-color="#0043C4"/>
</linearGradient>
<linearGradient id="paint7_linear_43_3718" x1="15.0421" y1="23.9953" x2="28.1901" y2="23.9953" gradientUnits="userSpaceOnUse">
<stop stop-color="#00B3FF"/>
<stop offset="1" stop-color="#0043C4"/>
</linearGradient>
</defs>
</svg>
